<svg id="visual" viewBox="0 0 3840 2160" width="3840" height="2160" xmlns="http://www.w3.org/2000/svg" xmlns:xlink="http://www.w3.org/1999/xlink" version="1.1"><rect x="0" y="0" width="3840" height="2160" fill="#A49978"></rect><path d="M0 1091L480 721L960 1103L1440 842L1920 582L2400 1068L2880 642L3360 689L3840 575L3840 2161L3360 2161L2880 2161L2400 2161L1920 2161L1440 2161L960 2161L480 2161L0 2161Z" fill="#2a916e"></path><path d="M0 1042L480 1006L960 1181L1440 1155L1920 798L2400 870L2880 1127L3360 811L3840 1316L3840 2161L3360 2161L2880 2161L2400 2161L1920 2161L1440 2161L960 2161L480 2161L0 2161Z" fill="#26795d"></path><path d="M0 1543L480 1559L960 1406L1440 1040L1920 1060L2400 1459L2880 1153L3360 1389L3840 1259L3840 2161L3360 2161L2880 2161L2400 2161L1920 2161L1440 2161L960 2161L480 2161L0 2161Z" fill="#22614c"></path><path d="M0 1713L480 1609L960 1722L1440 1697L1920 1346L2400 1336L2880 1562L3360 1600L3840 1503L3840 2161L3360 2161L2880 2161L2400 2161L1920 2161L1440 2161L960 2161L480 2161L0 2161Z" fill="#1e4a3b"></path><path d="M0 1697L480 1914L960 1729L1440 1820L1920 1658L2400 1874L2880 1939L3360 1868L3840 1689L3840 2161L3360 2161L2880 2161L2400 2161L1920 2161L1440 2161L960 2161L480 2161L0 2161Z" fill="#19342b"></path></svg>