<svg id="visual" viewBox="0 0 1080 1920" width="1080" height="1920" xmlns="http://www.w3.org/2000/svg" xmlns:xlink="http://www.w3.org/1999/xlink" version="1.1"><rect x="0" y="0" width="1080" height="1920" fill="#6DD1AE"></rect><path d="M0 414L135 740L270 1038L405 491L540 627L675 757L810 591L945 926L1080 514L1080 1921L945 1921L810 1921L675 1921L540 1921L405 1921L270 1921L135 1921L0 1921Z" fill="#2e9d78"></path><path d="M0 821L135 848L270 914L405 975L540 676L675 956L810 1207L945 837L1080 975L1080 1921L945 1921L810 1921L675 1921L540 1921L405 1921L270 1921L135 1921L0 1921Z" fill="#298164"></path><path d="M0 1122L135 982L270 925L405 1132L540 1007L675 1396L810 960L945 1319L1080 947L1080 1921L945 1921L810 1921L675 1921L540 1921L405 1921L270 1921L135 1921L0 1921Z" fill="#246651"></path><path d="M0 1465L135 1268L270 1549L405 1379L540 1381L675 1267L810 1394L945 1297L1080 1408L1080 1921L945 1921L810 1921L675 1921L540 1921L405 1921L270 1921L135 1921L0 1921Z" fill="#1f4c3e"></path><path d="M0 1634L135 1445L270 1541L405 1575L540 1471L675 1728L810 1591L945 1735L1080 1742L1080 1921L945 1921L810 1921L675 1921L540 1921L405 1921L270 1921L135 1921L0 1921Z" fill="#19342b"></path></svg>